<?xml version="1.0" standalone="no"?>
<!DOCTYPE svg PUBLIC "-//W3C//DTD SVG 1.1//EN" "http://www.w3.org/Graphics/SVG/1.1/DTD/svg11.dtd" >
<svg xmlns="http://www.w3.org/2000/svg" xmlns:xlink="http://www.w3.org/1999/xlink" version="1.1">
<metadata>
Created by FontForge 20230101 at Tue Apr  1 17:11:04 2025
 By Zoltán Kovács, based on Alan Bunning's KoineGreek.ttf
</metadata>
<defs>
<font id="KoineGreekBibref" horiz-adv-x="675" >
  <font-face 
    font-family="KoineGreekBibref"
    font-weight="400"
    font-stretch="normal"
    units-per-em="1024"
    panose-1="0 0 4 0 0 0 0 0 0 0"
    ascent="819"
    descent="-205"
    x-height="600"
    cap-height="600"
    bbox="21 -100 877 750"
    underline-thickness="51"
    underline-position="71"
    unicode-range="U+0020-03F2"
  />
<missing-glyph horiz-adv-x="384" 
 />
    <glyph glyph-name=".notdef" horiz-adv-x="384" 
 />
    <glyph glyph-name=".notdef" horiz-adv-x="384" 
 />
    <glyph glyph-name="space" unicode=" " horiz-adv-x="301" 
 />
    <glyph glyph-name="a" unicode="a" horiz-adv-x="600" 
d="M134 89q1 -2 4 -2q10 0 40 19q41 26 83 61q63 66 83 87l-38 77l-90 -99q-31 -43 -51 -73q-19 -32 -31 -70zM28 0q9 32 30 114q30 60 57 104q29 41 77 106t75 96l-92 180h100l300 -600h-99l-94 181q-12 -7 -44 -51q-53 -46 -67 -58q-30 -21 -112 -55q-66 -17 -131 -17z
" />
    <glyph glyph-name="A" unicode="A" horiz-adv-x="600" 
d="M134 89q1 -2 4 -2q10 0 40 19q41 26 83 61q63 66 83 87l-38 77l-90 -99q-31 -43 -51 -73q-19 -32 -31 -70zM28 0q9 32 30 114q30 60 57 104q29 41 77 106t75 96l-92 180h100l300 -600h-99l-94 181q-12 -7 -44 -51q-53 -46 -67 -58q-30 -21 -112 -55q-66 -17 -131 -17z
" />
    <glyph glyph-name="alpha" unicode="&#x3b1;" horiz-adv-x="600" 
d="M134 89q1 -2 4 -2q10 0 40 19q41 26 83 61q63 66 83 87l-38 77l-90 -99q-31 -43 -51 -73q-19 -32 -31 -70zM28 0q9 32 30 114q30 60 57 104q29 41 77 106t75 96l-92 180h100l300 -600h-99l-94 181q-12 -7 -44 -51q-53 -46 -67 -58q-30 -21 -112 -55q-66 -17 -131 -17z
" />
    <glyph glyph-name="Alpha" unicode="&#x391;" horiz-adv-x="600" 
d="M134 89q1 -2 4 -2q10 0 40 19q41 26 83 61q63 66 83 87l-38 77l-90 -99q-31 -43 -51 -73q-19 -32 -31 -70zM28 0q9 32 30 114q30 60 57 104q29 41 77 106t75 96l-92 180h100l300 -600h-99l-94 181q-12 -7 -44 -51q-53 -46 -67 -58q-30 -21 -112 -55q-66 -17 -131 -17z
" />
    <glyph glyph-name="b" unicode="b" horiz-adv-x="480" 
d="M300 84q30 6 60 48v72q-29 48 -60 48h-156v-168h156zM300 336q48 27 48 60v60q0 50 -48 60h-156v-180h156zM48 0v600h252q74 0 108 -36q38 -38 48 -84v-84q-24 -71 -60 -96q41 -42 60 -96v-84q-12 -37 -48.5 -73t-107.5 -47h-252z" />
    <glyph glyph-name="B" unicode="B" horiz-adv-x="480" 
d="M300 84q30 6 60 48v72q-29 48 -60 48h-156v-168h156zM300 336q48 27 48 60v60q0 50 -48 60h-156v-180h156zM48 0v600h252q74 0 108 -36q38 -38 48 -84v-84q-24 -71 -60 -96q41 -42 60 -96v-84q-12 -37 -48.5 -73t-107.5 -47h-252z" />
    <glyph glyph-name="beta" unicode="&#x3b2;" horiz-adv-x="480" 
d="M300 84q30 6 60 48v72q-29 48 -60 48h-156v-168h156zM300 336q48 27 48 60v60q0 50 -48 60h-156v-180h156zM48 0v600h252q74 0 108 -36q38 -38 48 -84v-84q-24 -71 -60 -96q41 -42 60 -96v-84q-12 -37 -48.5 -73t-107.5 -47h-252z" />
    <glyph glyph-name="Beta" unicode="&#x392;" horiz-adv-x="480" 
d="M300 84q30 6 60 48v72q-29 48 -60 48h-156v-168h156zM300 336q48 27 48 60v60q0 50 -48 60h-156v-180h156zM48 0v600h252q74 0 108 -36q38 -38 48 -84v-84q-24 -71 -60 -96q41 -42 60 -96v-84q-12 -37 -48.5 -73t-107.5 -47h-252z" />
    <glyph glyph-name="x" unicode="x" 
d="M22 0l252 312l-249 288h125l200 -225l175 225h125l-228 -290l228 -310h-125l-175 250l-201 -250h-127z" />
    <glyph glyph-name="X" unicode="X" 
d="M22 0l252 312l-249 288h125l200 -225l175 225h125l-228 -290l228 -310h-125l-175 250l-201 -250h-127z" />
    <glyph glyph-name="chi" unicode="&#x3c7;" 
d="M22 0l252 312l-249 288h125l200 -225l175 225h125l-228 -290l228 -310h-125l-175 250l-201 -250h-127z" />
    <glyph glyph-name="Chi" unicode="&#x3a7;" 
d="M22 0l252 312l-249 288h125l200 -225l175 225h125l-228 -290l228 -310h-125l-175 250l-201 -250h-127z" />
    <glyph glyph-name="d" unicode="d" horiz-adv-x="700" 
d="M516 84l-166 316l-170 -316h336zM24 0l326 600l325 -600h-651z" />
    <glyph glyph-name="D" unicode="D" horiz-adv-x="700" 
d="M516 84l-166 316l-170 -316h336zM24 0l326 600l325 -600h-651z" />
    <glyph glyph-name="delta" unicode="&#x3b4;" horiz-adv-x="700" 
d="M516 84l-166 316l-170 -316h336zM24 0l326 600l325 -600h-651z" />
    <glyph glyph-name="Delta" unicode="&#x394;" horiz-adv-x="700" 
d="M516 84l-166 316l-170 -316h336zM24 0l326 600l325 -600h-651z" />
    <glyph glyph-name="e" unicode="e" horiz-adv-x="525" 
d="M75 100q-50 81 -50 150v75q0 38 25 125q12 42 75 100q55 50 151 50q100 0 149 -50q58 -52 75 -100h-100q-25 66 -124 66q-82 0 -126 -66q-30 -77 -30 -121v-5h384v-84h-384q9 -48 30 -90q51 -59 126 -66q88 4 124 41h100q-19 -67 -100 -100q-62 -25 -116 -25h-8
q-125 0 -201 100z" />
    <glyph glyph-name="E" unicode="E" horiz-adv-x="525" 
d="M75 100q-50 81 -50 150v75q0 38 25 125q12 42 75 100q55 50 151 50q100 0 149 -50q58 -52 75 -100h-100q-25 66 -124 66q-82 0 -126 -66q-30 -77 -30 -121v-5h384v-84h-384q9 -48 30 -90q51 -59 126 -66q88 4 124 41h100q-19 -67 -100 -100q-62 -25 -116 -25h-8
q-125 0 -201 100z" />
    <glyph glyph-name="epsilon" unicode="&#x3b5;" horiz-adv-x="525" 
d="M75 100q-50 81 -50 150v75q0 38 25 125q12 42 75 100q55 50 151 50q100 0 149 -50q58 -52 75 -100h-100q-25 66 -124 66q-82 0 -126 -66q-30 -77 -30 -121v-5h384v-84h-384q9 -48 30 -90q51 -59 126 -66q88 4 124 41h100q-19 -67 -100 -100q-62 -25 -116 -25h-8
q-125 0 -201 100z" />
    <glyph glyph-name="Epsilon" unicode="&#x395;" horiz-adv-x="525" 
d="M75 100q-50 81 -50 150v75q0 38 25 125q12 42 75 100q55 50 151 50q100 0 149 -50q58 -52 75 -100h-100q-25 66 -124 66q-82 0 -126 -66q-30 -77 -30 -121v-5h384v-84h-384q9 -48 30 -90q51 -59 126 -66q88 4 124 41h100q-19 -67 -100 -100q-62 -25 -116 -25h-8
q-125 0 -201 100z" />
    <glyph glyph-name="f" unicode="f" horiz-adv-x="700" 
d="M300 150v342q-63 0 -101 -17q-75 -52 -75 -150q0 -71 68 -145q56 -22 108 -30zM504 180q71 44 71 145q0 94 -76 150q-41 17 -103 17v-336q82 0 108 24zM300 -96v171q-42 0 -126 25q-53 29 -100 75q-49 48 -49 150q0 92 49 150q40 46 100 75q50 14 126 25v169h96v-168
q62 0 128 -26q56 -30 100 -75q51 -76 51 -150q0 -86 -51 -150q-69 -62 -100 -75q-69 -28 -124 -28h-4v-168h-96z" />
    <glyph glyph-name="F" unicode="F" horiz-adv-x="700" 
d="M300 150v342q-63 0 -101 -17q-75 -52 -75 -150q0 -71 68 -145q56 -22 108 -30zM504 180q71 44 71 145q0 94 -76 150q-41 17 -103 17v-336q82 0 108 24zM300 -96v171q-42 0 -126 25q-53 29 -100 75q-49 48 -49 150q0 92 49 150q40 46 100 75q50 14 126 25v169h96v-168
q62 0 128 -26q56 -30 100 -75q51 -76 51 -150q0 -86 -51 -150q-69 -62 -100 -75q-69 -28 -124 -28h-4v-168h-96z" />
    <glyph glyph-name="phi" unicode="&#x3c6;" horiz-adv-x="700" 
d="M300 150v342q-63 0 -101 -17q-75 -52 -75 -150q0 -71 68 -145q56 -22 108 -30zM504 180q71 44 71 145q0 94 -76 150q-41 17 -103 17v-336q82 0 108 24zM300 -96v171q-42 0 -126 25q-53 29 -100 75q-49 48 -49 150q0 92 49 150q40 46 100 75q50 14 126 25v169h96v-168
q62 0 128 -26q56 -30 100 -75q51 -76 51 -150q0 -86 -51 -150q-69 -62 -100 -75q-69 -28 -124 -28h-4v-168h-96z" />
    <glyph glyph-name="Phi" unicode="&#x3a6;" horiz-adv-x="700" 
d="M300 150v342q-63 0 -101 -17q-75 -52 -75 -150q0 -71 68 -145q56 -22 108 -30zM504 180q71 44 71 145q0 94 -76 150q-41 17 -103 17v-336q82 0 108 24zM300 -96v171q-42 0 -126 25q-53 29 -100 75q-49 48 -49 150q0 92 49 150q40 46 100 75q50 14 126 25v169h96v-168
q62 0 128 -26q56 -30 100 -75q51 -76 51 -150q0 -86 -51 -150q-69 -62 -100 -75q-69 -28 -124 -28h-4v-168h-96z" />
    <glyph glyph-name="g" unicode="g" horiz-adv-x="525" 
d="M48 0v600h444v-84h-348v-516h-96z" />
    <glyph glyph-name="G" unicode="G" horiz-adv-x="525" 
d="M48 0v600h444v-84h-348v-516h-96z" />
    <glyph glyph-name="gamma" unicode="&#x3b3;" horiz-adv-x="525" 
d="M48 0v600h444v-84h-348v-516h-96z" />
    <glyph glyph-name="Gamma" unicode="&#x393;" horiz-adv-x="525" 
d="M48 0v600h444v-84h-348v-516h-96z" />
    <glyph glyph-name="h" unicode="h" horiz-adv-x="636" 
d="M48 0v600h96v-252h348v252h96v-600h-96v264h-348v-264h-96z" />
    <glyph glyph-name="H" unicode="H" horiz-adv-x="636" 
d="M48 0v600h96v-252h348v252h96v-600h-96v264h-348v-264h-96z" />
    <glyph glyph-name="eta" unicode="&#x3b7;" horiz-adv-x="636" 
d="M48 0v600h96v-252h348v252h96v-600h-96v264h-348v-264h-96z" />
    <glyph glyph-name="Eta" unicode="&#x397;" horiz-adv-x="636" 
d="M48 0v600h96v-252h348v252h96v-600h-96v264h-348v-264h-96z" />
    <glyph glyph-name="i" unicode="i" horiz-adv-x="250" 
d="M75 0v600h100v-600h-100z" />
    <glyph glyph-name="I" unicode="I" horiz-adv-x="250" 
d="M75 0v600h100v-600h-100z" />
    <glyph glyph-name="iota" unicode="&#x3b9;" horiz-adv-x="250" 
d="M75 0v600h100v-600h-100z" />
    <glyph glyph-name="Iota" unicode="&#x399;" horiz-adv-x="250" 
d="M75 0v600h100v-600h-100z" />
    <glyph glyph-name="k" unicode="k" horiz-adv-x="550" 
d="M50 0v600h100v-250l250 250h125l-300 -300l300 -300h-125l-250 250v-250h-100z" />
    <glyph glyph-name="K" unicode="K" horiz-adv-x="550" 
d="M50 0v600h100v-250l250 250h125l-300 -300l300 -300h-125l-250 250v-250h-100z" />
    <glyph glyph-name="kappa" unicode="&#x3ba;" horiz-adv-x="550" 
d="M50 0v600h100v-250l250 250h125l-300 -300l300 -300h-125l-250 250v-250h-100z" />
    <glyph glyph-name="Kappa" unicode="&#x39a;" horiz-adv-x="550" 
d="M50 0v600h100v-250l250 250h125l-300 -300l300 -300h-125l-250 250v-250h-100z" />
    <glyph glyph-name="l" unicode="l" horiz-adv-x="650" 
d="M25 0l280 430l-80 170h100l300 -600h-100l-175 350l-225 -350h-100z" />
    <glyph glyph-name="L" unicode="L" horiz-adv-x="650" 
d="M25 0l280 430l-80 170h100l300 -600h-100l-175 350l-225 -350h-100z" />
    <glyph glyph-name="lambda" unicode="&#x3bb;" horiz-adv-x="650" 
d="M25 0l280 430l-80 170h100l300 -600h-100l-175 350l-225 -350h-100z" />
    <glyph glyph-name="Lambda" unicode="&#x39b;" horiz-adv-x="650" 
d="M25 0l280 430l-80 170h100l300 -600h-100l-175 350l-225 -350h-100z" />
    <glyph glyph-name="m" unicode="m" horiz-adv-x="800" 
d="M50 0v600h100l250 -425l250 425h100v-600h-100v425l-250 -425l-250 425v-425h-100z" />
    <glyph glyph-name="M" unicode="M" horiz-adv-x="800" 
d="M50 0v600h100l250 -425l250 425h100v-600h-100v425l-250 -425l-250 425v-425h-100z" />
    <glyph glyph-name="mu" unicode="&#x3bc;" horiz-adv-x="800" 
d="M50 0v600h100l250 -425l250 425h100v-600h-100v425l-250 -425l-250 425v-425h-100z" />
    <glyph glyph-name="Mu" unicode="&#x39c;" horiz-adv-x="800" 
d="M50 0v600h100l250 -425l250 425h100v-600h-100v425l-250 -425l-250 425v-425h-100z" />
    <glyph glyph-name="n" unicode="n" 
d="M50 0v600h100l375 -450v450h100v-600h-100l-375 450v-450h-100z" />
    <glyph glyph-name="N" unicode="N" 
d="M50 0v600h100l375 -450v450h100v-600h-100l-375 450v-450h-100z" />
    <glyph glyph-name="nu" unicode="&#x3bd;" 
d="M50 0v600h100l375 -450v450h100v-600h-100l-375 450v-450h-100z" />
    <glyph glyph-name="Nu" unicode="&#x39d;" 
d="M50 0v600h100l375 -450v450h100v-600h-100l-375 450v-450h-100z" />
    <glyph glyph-name="o" unicode="o" 
d="M341 517q-45 0 -82.5 -14t-67.5 -44q-66 -66 -66 -158q0 -95 66 -161q30 -30 64.5 -43t80.5 -13q48 6 82.5 16t64.5 40q67 67 67 161q0 93 -67 158q-60 58 -142 58zM222 576q56 24 114.5 24t114.5 -24t100 -65t71.5 -95.5t27.5 -117t-27.5 -117t-71.5 -95t-100 -63.5
t-114.5 -23t-114.5 23t-100 63.5t-70.5 95t-26.5 117t26.5 117t70.5 95.5t100 65z" />
    <glyph glyph-name="O" unicode="O" 
d="M341 517q-45 0 -82.5 -14t-67.5 -44q-66 -66 -66 -158q0 -95 66 -161q30 -30 64.5 -43t80.5 -13q48 6 82.5 16t64.5 40q67 67 67 161q0 93 -67 158q-60 58 -142 58zM222 576q56 24 114.5 24t114.5 -24t100 -65t71.5 -95.5t27.5 -117t-27.5 -117t-71.5 -95t-100 -63.5
t-114.5 -23t-114.5 23t-100 63.5t-70.5 95t-26.5 117t26.5 117t70.5 95.5t100 65z" />
    <glyph glyph-name="omicron" unicode="&#x3bf;" 
d="M341 517q-45 0 -82.5 -14t-67.5 -44q-66 -66 -66 -158q0 -95 66 -161q30 -30 64.5 -43t80.5 -13q48 6 82.5 16t64.5 40q67 67 67 161q0 93 -67 158q-60 58 -142 58zM222 576q56 24 114.5 24t114.5 -24t100 -65t71.5 -95.5t27.5 -117t-27.5 -117t-71.5 -95t-100 -63.5
t-114.5 -23t-114.5 23t-100 63.5t-70.5 95t-26.5 117t26.5 117t70.5 95.5t100 65z" />
    <glyph glyph-name="Omicron" unicode="&#x39f;" 
d="M341 517q-45 0 -82.5 -14t-67.5 -44q-66 -66 -66 -158q0 -95 66 -161q30 -30 64.5 -43t80.5 -13q48 6 82.5 16t64.5 40q67 67 67 161q0 93 -67 158q-60 58 -142 58zM222 576q56 24 114.5 24t114.5 -24t100 -65t71.5 -95.5t27.5 -117t-27.5 -117t-71.5 -95t-100 -63.5
t-114.5 -23t-114.5 23t-100 63.5t-70.5 95t-26.5 117t26.5 117t70.5 95.5t100 65z" />
    <glyph glyph-name="p" unicode="p" horiz-adv-x="750" 
d="M96 0v516h-72v84h696v-84h-72v-516h-108v516h-348v-516h-96z" />
    <glyph glyph-name="P" unicode="P" horiz-adv-x="750" 
d="M96 0v516h-72v84h696v-84h-72v-516h-108v516h-348v-516h-96z" />
    <glyph glyph-name="pi" unicode="&#x3c0;" horiz-adv-x="750" 
d="M96 0v516h-72v84h696v-84h-72v-516h-108v516h-348v-516h-96z" />
    <glyph glyph-name="Pi" unicode="&#x3a0;" horiz-adv-x="750" 
d="M96 0v516h-72v84h696v-84h-72v-516h-108v516h-348v-516h-96z" />
    <glyph glyph-name="u" unicode="u" 
d="M552 264h-432q14 -96 60 -132q78 -48 156 -48q92 0 156 48q51 46 60 132zM336 600q82 0 139 -25q100 -44 150 -125q25 -80 25 -150q0 -50 -25 -125q-20 -63 -100 -125q-68 -50 -190 -50q-105 0 -185 50q-84 75 -100 125q-25 52 -25 125q0 94 50 175q38 56 125 100
q84 25 136 25zM336 516q-90 0 -156 -48q-50 -57 -60 -120h432q-12 60 -60 120q-51 48 -156 48z" />
    <glyph glyph-name="U" unicode="U" 
d="M552 264h-432q14 -96 60 -132q78 -48 156 -48q92 0 156 48q51 46 60 132zM336 600q82 0 139 -25q100 -44 150 -125q25 -80 25 -150q0 -50 -25 -125q-20 -63 -100 -125q-68 -50 -190 -50q-105 0 -185 50q-84 75 -100 125q-25 52 -25 125q0 94 50 175q38 56 125 100
q84 25 136 25zM336 516q-90 0 -156 -48q-50 -57 -60 -120h432q-12 60 -60 120q-51 48 -156 48z" />
    <glyph glyph-name="theta" unicode="&#x3b8;" 
d="M552 264h-432q14 -96 60 -132q78 -48 156 -48q92 0 156 48q51 46 60 132zM336 600q82 0 139 -25q100 -44 150 -125q25 -80 25 -150q0 -50 -25 -125q-20 -63 -100 -125q-68 -50 -190 -50q-105 0 -185 50q-84 75 -100 125q-25 52 -25 125q0 94 50 175q38 56 125 100
q84 25 136 25zM336 516q-90 0 -156 -48q-50 -57 -60 -120h432q-12 60 -60 120q-51 48 -156 48z" />
    <glyph glyph-name="Theta" unicode="&#x398;" 
d="M552 264h-432q14 -96 60 -132q78 -48 156 -48q92 0 156 48q51 46 60 132zM336 600q82 0 139 -25q100 -44 150 -125q25 -80 25 -150q0 -50 -25 -125q-20 -63 -100 -125q-68 -50 -190 -50q-105 0 -185 50q-84 75 -100 125q-25 52 -25 125q0 94 50 175q38 56 125 100
q84 25 136 25zM336 516q-90 0 -156 -48q-50 -57 -60 -120h432q-12 60 -60 120q-51 48 -156 48z" />
    <glyph glyph-name="r" unicode="r" horiz-adv-x="475" 
d="M288 288q62 17 62 87v75q0 38 -62 66h-144v-228h144zM48 -96v696h277q103 -28 125 -150v-75q-8 -71 -50 -125q-40 -46 -76 -46h-180v-300h-96z" />
    <glyph glyph-name="R" unicode="R" horiz-adv-x="475" 
d="M288 288q62 17 62 87v75q0 38 -62 66h-144v-228h144zM48 -96v696h277q103 -28 125 -150v-75q-8 -71 -50 -125q-40 -46 -76 -46h-180v-300h-96z" />
    <glyph glyph-name="rho" unicode="&#x3c1;" horiz-adv-x="475" 
d="M288 288q62 17 62 87v75q0 38 -62 66h-144v-228h144zM48 -96v696h277q103 -28 125 -150v-75q-8 -71 -50 -125q-40 -46 -76 -46h-180v-300h-96z" />
    <glyph glyph-name="Rho" unicode="&#x3a1;" horiz-adv-x="475" 
d="M288 288q62 17 62 87v75q0 38 -62 66h-144v-228h144zM48 -96v696h277q103 -28 125 -150v-75q-8 -71 -50 -125q-40 -46 -76 -46h-180v-300h-96z" />
    <glyph glyph-name="s" unicode="s" horiz-adv-x="650" 
d="M222 576q56 24 114.5 24t114.5 -24t100 -65q46 -32 74 -86h-100q-48 91 -189 91q-211 -34 -211 -216q22 -186 211 -216q132 0 189 91h100q-27 -55 -74 -89q-44 -40 -100 -63t-114.5 -23t-114.5 23t-100 63.5t-70.5 95t-26.5 117t26.5 117t70.5 95.5t100 65z" />
    <glyph glyph-name="S" unicode="S" horiz-adv-x="650" 
d="M222 576q56 24 114.5 24t114.5 -24t100 -65q46 -32 74 -86h-100q-48 91 -189 91q-211 -34 -211 -216q22 -186 211 -216q132 0 189 91h100q-27 -55 -74 -89q-44 -40 -100 -63t-114.5 -23t-114.5 23t-100 63.5t-70.5 95t-26.5 117t26.5 117t70.5 95.5t100 65z" />
    <glyph glyph-name="w" unicode="w" horiz-adv-x="650" 
d="M222 576q56 24 114.5 24t114.5 -24t100 -65q46 -32 74 -86h-100q-48 91 -189 91q-211 -34 -211 -216q22 -186 211 -216q132 0 189 91h100q-27 -55 -74 -89q-44 -40 -100 -63t-114.5 -23t-114.5 23t-100 63.5t-70.5 95t-26.5 117t26.5 117t70.5 95.5t100 65z" />
    <glyph glyph-name="W" unicode="W" horiz-adv-x="650" 
d="M222 576q56 24 114.5 24t114.5 -24t100 -65q46 -32 74 -86h-100q-48 91 -189 91q-211 -34 -211 -216q22 -186 211 -216q132 0 189 91h100q-27 -55 -74 -89q-44 -40 -100 -63t-114.5 -23t-114.5 23t-100 63.5t-70.5 95t-26.5 117t26.5 117t70.5 95.5t100 65z" />
    <glyph glyph-name="sigma" unicode="&#x3c3;" horiz-adv-x="650" 
d="M222 576q56 24 114.5 24t114.5 -24t100 -65q46 -32 74 -86h-100q-48 91 -189 91q-211 -34 -211 -216q22 -186 211 -216q132 0 189 91h100q-27 -55 -74 -89q-44 -40 -100 -63t-114.5 -23t-114.5 23t-100 63.5t-70.5 95t-26.5 117t26.5 117t70.5 95.5t100 65z" />
    <glyph glyph-name="Sigma" unicode="&#x3a3;" horiz-adv-x="650" 
d="M222 576q56 24 114.5 24t114.5 -24t100 -65q46 -32 74 -86h-100q-48 91 -189 91q-211 -34 -211 -216q22 -186 211 -216q132 0 189 91h100q-27 -55 -74 -89q-44 -40 -100 -63t-114.5 -23t-114.5 23t-100 63.5t-70.5 95t-26.5 117t26.5 117t70.5 95.5t100 65z" />
    <glyph glyph-name="sigma" unicode="&#x3c2;" horiz-adv-x="650" 
d="M222 576q56 24 114.5 24t114.5 -24t100 -65q46 -32 74 -86h-100q-48 91 -189 91q-211 -34 -211 -216q22 -186 211 -216q132 0 189 91h100q-27 -55 -74 -89q-44 -40 -100 -63t-114.5 -23t-114.5 23t-100 63.5t-70.5 95t-26.5 117t26.5 117t70.5 95.5t100 65z" />
    <glyph glyph-name="sigma" unicode="&#x3f2;" horiz-adv-x="650" 
d="M222 576q56 24 114.5 24t114.5 -24t100 -65q46 -32 74 -86h-100q-48 91 -189 91q-211 -34 -211 -216q22 -186 211 -216q132 0 189 91h100q-27 -55 -74 -89q-44 -40 -100 -63t-114.5 -23t-114.5 23t-100 63.5t-70.5 95t-26.5 117t26.5 117t70.5 95.5t100 65z" />
    <glyph glyph-name="t" unicode="t" horiz-adv-x="650" 
d="M276 0v516h-252v84h600v-84h-252v-516h-96z" />
    <glyph glyph-name="T" unicode="T" horiz-adv-x="650" 
d="M276 0v516h-252v84h600v-84h-252v-516h-96z" />
    <glyph glyph-name="tau" unicode="&#x3c4;" horiz-adv-x="650" 
d="M276 0v516h-252v84h600v-84h-252v-516h-96z" />
    <glyph glyph-name="Tau" unicode="&#x3a4;" horiz-adv-x="650" 
d="M276 0v516h-252v84h600v-84h-252v-516h-96z" />
    <glyph glyph-name="y" unicode="y" horiz-adv-x="625" 
d="M275 -100v375l-250 325h100l200 -248l175 248h100l-225 -325v-375h-100z" />
    <glyph glyph-name="Y" unicode="Y" horiz-adv-x="625" 
d="M275 -100v375l-250 325h100l200 -248l175 248h100l-225 -325v-375h-100z" />
    <glyph glyph-name="ypsilon" unicode="&#x3c5;" horiz-adv-x="625" 
d="M275 -100v375l-250 325h100l200 -248l175 248h100l-225 -325v-375h-100z" />
    <glyph glyph-name="Ypsilon" unicode="&#x3a5;" horiz-adv-x="625" 
d="M275 -100v375l-250 325h100l200 -248l175 248h100l-225 -325v-375h-100z" />
    <glyph glyph-name="v" unicode="v" horiz-adv-x="900" 
d="M300 0q-116 21 -149 48.5t-76 76.5t-51 135q-3 42 -3 70q0 30 4 45q0 59 25 150q34 69 50 75h100q-36 -27 -50 -75q-25 -88 -25 -150q-4 -16 -4 -45q0 -32 5 -80q26 -68 74 -125q46 -38 96 -38t104 38v175h100v-175q55 -38 105 -38t95 38q54 33 75 125q2 40 2 71t-2 54v4
q0 55 -25 146q-12 42 -50 75h100q12 0 50 -75q25 -98 25 -150q2 -23 2 -54t-2 -71q-10 -63 -48 -125q-47 -54 -76 -75t-126 -50q-142 6 -175 75q-50 -75 -150 -75z" />
    <glyph glyph-name="V" unicode="V" horiz-adv-x="900" 
d="M300 0q-116 21 -149 48.5t-76 76.5t-51 135q-3 42 -3 70q0 30 4 45q0 59 25 150q34 69 50 75h100q-36 -27 -50 -75q-25 -88 -25 -150q-4 -16 -4 -45q0 -32 5 -80q26 -68 74 -125q46 -38 96 -38t104 38v175h100v-175q55 -38 105 -38t95 38q54 33 75 125q2 40 2 71t-2 54v4
q0 55 -25 146q-12 42 -50 75h100q12 0 50 -75q25 -98 25 -150q2 -23 2 -54t-2 -71q-10 -63 -48 -125q-47 -54 -76 -75t-126 -50q-142 6 -175 75q-50 -75 -150 -75z" />
    <glyph glyph-name="omega" unicode="&#x3c9;" horiz-adv-x="900" 
d="M300 0q-116 21 -149 48.5t-76 76.5t-51 135q-3 42 -3 70q0 30 4 45q0 59 25 150q34 69 50 75h100q-36 -27 -50 -75q-25 -88 -25 -150q-4 -16 -4 -45q0 -32 5 -80q26 -68 74 -125q46 -38 96 -38t104 38v175h100v-175q55 -38 105 -38t95 38q54 33 75 125q2 40 2 71t-2 54v4
q0 55 -25 146q-12 42 -50 75h100q12 0 50 -75q25 -98 25 -150q2 -23 2 -54t-2 -71q-10 -63 -48 -125q-47 -54 -76 -75t-126 -50q-142 6 -175 75q-50 -75 -150 -75z" />
    <glyph glyph-name="Omega" unicode="&#x3a9;" horiz-adv-x="900" 
d="M300 0q-116 21 -149 48.5t-76 76.5t-51 135q-3 42 -3 70q0 30 4 45q0 59 25 150q34 69 50 75h100q-36 -27 -50 -75q-25 -88 -25 -150q-4 -16 -4 -45q0 -32 5 -80q26 -68 74 -125q46 -38 96 -38t104 38v175h100v-175q55 -38 105 -38t95 38q54 33 75 125q2 40 2 71t-2 54v4
q0 55 -25 146q-12 42 -50 75h100q12 0 50 -75q25 -98 25 -150q2 -23 2 -54t-2 -71q-10 -63 -48 -125q-47 -54 -76 -75t-126 -50q-142 6 -175 75q-50 -75 -150 -75z" />
    <glyph glyph-name="j" unicode="j" horiz-adv-x="651" 
d="M48 0v84l288 168l-204 96l312 168h-396v84h552v-84l-300 -168l204 -96l-300 -168h396v-84h-552z" />
    <glyph glyph-name="J" unicode="J" horiz-adv-x="651" 
d="M48 0v84l288 168l-204 96l312 168h-396v84h552v-84l-300 -168l204 -96l-300 -168h396v-84h-552z" />
    <glyph glyph-name="xi" unicode="&#x3be;" horiz-adv-x="651" 
d="M48 0v84l288 168l-204 96l312 168h-396v84h552v-84l-300 -168l204 -96l-300 -168h396v-84h-552z" />
    <glyph glyph-name="Xi" unicode="&#x39e;" horiz-adv-x="651" 
d="M48 0v84l288 168l-204 96l312 168h-396v84h552v-84l-300 -168l204 -96l-300 -168h396v-84h-552z" />
    <glyph glyph-name="c" unicode="c" horiz-adv-x="775" 
d="M350 -100v400l-325 300h100l225 -200v350h100v-350l200 200h100l-300 -300v-400h-100z" />
    <glyph glyph-name="C" unicode="C" horiz-adv-x="775" 
d="M350 -100v400l-325 300h100l225 -200v350h100v-350l200 200h100l-300 -300v-400h-100z" />
    <glyph glyph-name="psi" unicode="&#x3c8;" horiz-adv-x="775" 
d="M350 -100v400l-325 300h100l225 -200v350h100v-350l200 200h100l-300 -300v-400h-100z" />
    <glyph glyph-name="Psi" unicode="&#x3a8;" horiz-adv-x="775" 
d="M350 -100v400l-325 300h100l225 -200v350h100v-350l200 200h100l-300 -300v-400h-100z" />
    <glyph glyph-name="z" unicode="z" horiz-adv-x="600" 
d="M24 0v96l444 420h-444v84h552v-96l-444 -420h444v-84h-552z" />
    <glyph glyph-name="Z" unicode="Z" horiz-adv-x="600" 
d="M24 0v96l444 420h-444v84h552v-96l-444 -420h444v-84h-552z" />
    <glyph glyph-name="q" unicode="q" horiz-adv-x="600" 
d="M24 0v96l444 420h-444v84h552v-96l-444 -420h444v-84h-552z" />
    <glyph glyph-name="Q" unicode="Q" horiz-adv-x="600" 
d="M24 0v96l444 420h-444v84h552v-96l-444 -420h444v-84h-552z" />
    <glyph glyph-name="zeta" unicode="&#x3b6;" horiz-adv-x="600" 
d="M24 0v96l444 420h-444v84h552v-96l-444 -420h444v-84h-552z" />
    <glyph glyph-name="Zeta" unicode="&#x396;" horiz-adv-x="600" 
d="M24 0v96l444 420h-444v84h552v-96l-444 -420h444v-84h-552z" />
  </font>
</defs>
</svg>
